<svg id="Layer_1" enable-background="new 0 0 512 512" height="512" viewBox="0 0 512 512" width="512" xmlns="http://www.w3.org/2000/svg"><g><path d="m453.065 412.577c30.119-40.703 47.937-91.057 47.937-145.579 0-135.311-109.691-245.002-245.002-245.002s-245.002 109.691-245.002 245.002 109.691 245.002 245.002 245.002c26.644 0 52.287-4.27 76.303-12.134z" fill="#1c2e7a"/><g><path d="m391.023 338.002c-4.393 0-7.955-3.561-7.955-7.955v-45.063c0-25.158 20.468-45.626 45.627-45.626 24.585 0 44.587-20.001 44.587-44.587s-20.002-44.587-44.587-44.587h-137.814c-4.393 0-7.955-3.561-7.955-7.955s3.562-7.955 7.955-7.955h137.814c33.358 0 60.497 27.139 60.497 60.497s-27.139 60.497-60.497 60.497c-16.386 0-29.717 13.33-29.717 29.716v45.063c.001 4.394-3.561 7.955-7.955 7.955z" fill="#e9efff"/></g><g><path d="m355.918 142.229c0-4.394 3.562-7.955 7.955-7.955h-72.992c-4.393 0-7.955 3.561-7.955 7.955s3.562 7.955 7.955 7.955h72.992c-4.393 0-7.955-3.561-7.955-7.955z" fill="#bec8f7"/></g><path d="m458.486 382.957c3.323-22.094-8.246-43.961-28.542-53.304-10.232-4.71-23.075-8.094-38.858-8.094s-28.626 3.384-38.858 8.094c-20.296 9.343-31.865 31.209-28.542 53.304 2.084 13.858 2.991 25.781 3.146 35.939 5.919 13.736 19.426 49.051 15.702 77.366 45.877-17.325 85.196-48.009 113.188-87.328.457-7.781 1.325-16.407 2.764-25.977z" fill="#e9efff"/><path d="m429.944 329.653c-10.232-4.71-23.075-8.094-38.858-8.094s-28.626 3.384-38.858 8.094c-20.296 9.343-31.865 31.209-28.542 53.304 2.084 13.858 2.991 25.781 3.146 35.939 5.919 13.736 19.427 49.051 15.702 77.366 14.445-5.455 28.239-12.237 41.235-20.194-1.652-10.239 7.316-16.618 7.316-16.618v-29.7l10.495-66.824c4.917-25.29 26.616-28.79 35.654-29.134-2.281-1.564-4.714-2.953-7.29-4.139z" fill="#d3dcfb"/><g><path d="m391.086 362.926c-4.393 0-7.955-3.561-7.955-7.955v-33.412c0-4.394 3.562-7.955 7.955-7.955s7.955 3.561 7.955 7.955v33.412c0 4.393-3.561 7.955-7.955 7.955z" fill="#bec8f7"/></g><g><path d="m391.086 429.75c-4.393 0-7.955-3.561-7.955-7.955v-17.502c0-4.394 3.562-7.955 7.955-7.955s7.955 3.561 7.955 7.955v17.502c0 4.393-3.561 7.955-7.955 7.955z" fill="#bec8f7"/></g><g><path d="m391.086 459.449c-4.393 0-7.955-3.561-7.955-7.955v-4.949c0-4.394 3.562-7.955 7.955-7.955s7.955 3.561 7.955 7.955v4.949c0 4.394-3.561 7.955-7.955 7.955z" fill="#bec8f7"/></g><path d="m322.437 459.004c-4.047 13.898-2.534 28.961 5.01 41.315.19.31.391.607.585.911 5.674-1.743 11.26-3.688 16.75-5.824 3.927-33.097-15.142-75.285-18.087-81.554.848 22.295-1.842 36.854-4.258 45.152z" fill="#167cc1"/><path d="m391.086 351.355c-7.86 0-14.291 6.431-14.291 14.291v27.973c0 7.86 6.431 14.29 14.291 14.29s14.29-6.431 14.29-14.29v-27.973c.001-7.861-6.43-14.291-14.29-14.291z" fill="#1e92d3"/><path d="m391.086 384.125c-7.86 0-14.291-6.431-14.291-14.29v23.784c0 7.86 6.431 14.29 14.291 14.29s14.291-6.431 14.291-14.29v-23.784c0 7.859-6.431 14.29-14.291 14.29z" fill="#167cc1"/><path d="m293.761 327.521h-233.189c-14.513 0-26.476 11.462-27.291 25.781h-.048v-321.197c0-15.037 12.302-27.339 27.339-27.339h233.189c3.946 0 7.175 3.229 7.175 7.175v322.756c0-3.947-3.229-7.176-7.175-7.176z" fill="#ffb332"/><g><path d="m120.789 305.698v-152.175c0-8.654 5.094-16.176 12.432-19.717v-129.04h-72.649c-15.037 0-27.339 12.303-27.339 27.339v321.197h.048c.815-14.318 12.778-25.781 27.291-25.781h80.691c-11.384-.728-20.474-10.263-20.474-21.823z" fill="#ff9100"/></g><path d="m62.78 4.766h21.038v322.756h-21.038z" fill="#ffb332"/><path d="m254.303 76.008h-121.082v36.784h121.082c3.952 0 7.156-3.204 7.156-7.156v-22.473c0-3.952-3.203-7.155-7.156-7.155z" fill="#ffdd40"/><g><path d="m253.504 52.883h-20.984c-4.394 0-7.955-3.561-7.955-7.955s3.562-7.955 7.955-7.955h20.984c4.394 0 7.955 3.561 7.955 7.955s-3.561 7.955-7.955 7.955z" fill="#e9efff"/></g><path d="m293.761 325.963h-233.189c-15.036 0-27.339 12.303-27.339 27.339 0 15.037 12.303 27.339 27.339 27.339h233.189c3.946 0 7.175-3.229 7.175-7.175v-40.328c0-3.946-3.229-7.175-7.175-7.175z" fill="#ff9100"/><g><path d="m281.109 327.571v37.865c-8.374-3.818-14.028-10.889-14.028-18.936s5.656-15.111 14.028-18.929z" fill="#bec8f7"/></g><path d="m281.109 365.436c.866.395.574 1.695-.378 1.695h-220.159c-13.62 0-24.996-7.841-27.019-17.998 2.023-13.077 13.399-23.17 27.019-23.17h224.873c-10.698 3.129-18.364 11.168-18.364 20.537 0 8.047 5.654 15.118 14.028 18.936z" fill="#e9efff"/><path d="m135.051 325.963h-74.479c-13.62 0-24.996 10.094-27.019 23.17 2.023 10.157 13.399 17.998 27.019 17.998h74.565c-18.207-6.413-18.596-34.755-.086-41.168z" fill="#bec8f7"/><path d="m130.472 0h-19.367c-2.69 0-4.869 2.18-4.869 4.87v131.717c0 2.752 3.327 4.13 5.272 2.184l5.157-5.158c2.277-2.277 5.969-2.277 8.246 0l5.158 5.158c1.946 1.946 5.272.568 5.272-2.184v-131.717c.001-2.689-2.179-4.87-4.869-4.87z" fill="#ff4155"/></g></svg>